<?xml version="1.0" encoding="UTF-8" standalone="no"?>
<svg
   version="1.0"
   width="864pt"
   height="864pt"
   viewBox="0 0 864 864"
   preserveAspectRatio="xMidYMid"
   id="svg3"
   sodipodi:docname="Generated-Image-September-14_-2025-1_59PM.svg"
   inkscape:version="1.4.2 (f4327f4, 2025-05-13)"
   xmlns:inkscape="http://www.inkscape.org/namespaces/inkscape"
   xmlns:sodipodi="http://sodipodi.sourceforge.net/DTD/sodipodi-0.dtd"
   xmlns="http://www.w3.org/2000/svg"
   xmlns:svg="http://www.w3.org/2000/svg">
  <defs
     id="defs3" />
  <sodipodi:namedview
     id="namedview3"
     pagecolor="#ffffff"
     bordercolor="#000000"
     borderopacity="0.25"
     inkscape:showpageshadow="2"
     inkscape:pageopacity="0.0"
     inkscape:pagecheckerboard="0"
     inkscape:deskcolor="#d1d1d1"
     inkscape:document-units="pt"
     inkscape:zoom="0.33605986"
     inkscape:cx="-355.59141"
     inkscape:cy="813.8431"
     inkscape:window-width="2560"
     inkscape:window-height="1334"
     inkscape:window-x="-11"
     inkscape:window-y="-11"
     inkscape:window-maximized="1"
     inkscape:current-layer="svg3" />
  <path
     d="M 533.52457,4.8916408 C 472.70173,12.163954 435.34857,22.74185 389.73141,46.211531 283.622,100.75375 210.56847,202.89643 180.81817,338.4256 c -2.64443,13.22232 -4.29723,44.95601 -4.29723,94.20927 0,65.78126 0.99165,78.34249 7.60281,108.75389 39.6671,176.1879 155.03216,293.53631 314.69209,319.65046 46.27827,7.60287 119.9929,4.62783 162.96558,-6.28061 58.8395,-15.53627 118.67065,-48.9227 156.6849,-87.5981 24.46137,-24.46138 48.59213,-56.85616 45.28661,-60.16175 -1.65282,-1.32219 -30.74199,-21.81689 -64.78956,-45.61711 l -61.81454,-43.30323 -6.61116,10.5779 c -10.24735,16.52795 -39.6671,43.63377 -61.48399,56.85615 -27.10582,16.19737 -57.18665,24.79188 -94.20927,27.10581 C 451.87649,719.56 355.35328,628.32576 336.51143,486.84654 c -5.28892,-39.66705 -1.98335,-107.43166 6.61116,-142.80143 23.13913,-92.55653 84.29252,-159.99054 163.95727,-181.14632 26.11411,-6.61117 82.63972,-6.61117 109.08444,0.3304 43.63378,11.23899 92.88703,43.63377 110.73723,73.05347 3.96668,6.28067 9.2556,11.23905 11.56955,10.5779 7.27231,-1.65279 123.62903,-83.63137 123.62903,-86.93696 0.33034,-5.95007 -32.3948,-46.93941 -51.5672,-64.459015 C 771.52696,59.764218 715.00139,29.02227 664.75646,16.130436 624.7588,6.213686 566.911,1.2553119 533.52457,4.8914433 Z"
     id="path1"
     style="fill:#9dac93;stroke:none;stroke-width:0.330559" />
  <path
     d="m 0.85161797,78.332208 v 78.154222 l 184.57691203,0.66512 184.57696,0.99773 -33.58965,53.21138 C 276.55301,305.81083 198.06623,427.53181 98.294934,579.5168 L 0.85161797,728.50864 v 68.17709 68.17706 H 55.393238 109.93491 l 71.5028,-112.40904 C 220.6811,690.92811 310.14271,550.58313 379.98262,440.83469 450.15513,331.08623 516.33676,226.9915 527.3116,209.69775 c 10.97485,-17.2937 25.608,-40.24107 32.92453,-50.55079 l 12.63771,-18.95654 V 70.350506 0.17799723 H 286.86273 0.85161797 Z"
     id="path2"
     style="fill:#008080;stroke:none;stroke-width:0.332571" />
  <path
     d="m 271.23189,712.54524 c -5.32113,6.98397 -94.11762,148.99184 -94.11762,150.6547 0,0.99773 89.12905,1.66285 197.87978,1.66285 H 572.87384 V 786.70857 708.55436 H 423.54943 c -115.40213,0 -149.98952,0.99773 -152.31754,3.99088 z"
     id="path3"
     style="fill:#008080;stroke:none;stroke-width:0.332571" />
</svg>
